<svg width="389" height="60" viewBox="0 0 389 60" fill="none" xmlns="http://www.w3.org/2000/svg">
<path d="M7.392 48C6.176 48 5.184 47.632 4.416 46.896C3.648 46.128 3.264 45.152 3.264 43.968V14.4H19.152C22.128 14.4 24.512 15.12 26.304 16.56C28.128 17.968 29.04 19.84 29.04 22.176V24.624C29.04 25.744 28.768 26.8 28.224 27.792C27.68 28.784 26.928 29.584 25.968 30.192V30.24C27.536 30.752 28.784 31.616 29.712 32.832C30.672 34.048 31.152 35.424 31.152 36.96V39.36C31.152 42.016 30.24 44.128 28.416 45.696C26.592 47.232 24.128 48 21.024 48H7.392ZM19.44 28.752C20.624 28.752 21.584 28.368 22.32 27.6C23.056 26.832 23.424 25.84 23.424 24.624V22.656C23.424 21.632 23.008 20.816 22.176 20.208C21.376 19.6 20.304 19.296 18.96 19.296H8.88V28.752H19.44ZM20.544 43.104C22.112 43.104 23.328 42.752 24.192 42.048C25.088 41.344 25.536 40.368 25.536 39.12V36.96C25.536 35.872 25.152 35.008 24.384 34.368C23.616 33.696 22.592 33.36 21.312 33.36H8.88V43.104H20.544ZM44.6239 48.384C42.6719 48.384 40.9439 48.016 39.4399 47.28C37.9679 46.544 36.8159 45.504 35.9839 44.16C35.1839 42.816 34.7839 41.264 34.7839 39.504V33.072C34.7839 31.216 35.1839 29.584 35.9839 28.176C36.8159 26.736 37.9679 25.632 39.4399 24.864C40.9439 24.064 42.6719 23.664 44.6239 23.664H48.4639C51.3759 23.664 53.7119 24.512 55.4719 26.208C57.2319 27.904 58.1119 30.16 58.1119 32.976V37.776H40.3039V39.504C40.3039 40.784 40.6879 41.808 41.4559 42.576C42.2559 43.344 43.3119 43.728 44.6239 43.728H48.3199C49.5999 43.728 50.6239 43.424 51.3919 42.816C52.1919 42.176 52.5919 41.344 52.5919 40.32H58.0159C58.0159 42.752 57.1199 44.704 55.3279 46.176C53.5359 47.648 51.1839 48.384 48.2719 48.384H44.6239ZM52.6879 33.648V32.976C52.6879 31.568 52.3039 30.432 51.5359 29.568C50.7679 28.704 49.7599 28.272 48.5119 28.272H44.6239C43.3119 28.272 42.2399 28.736 41.4079 29.664C40.6079 30.56 40.2079 31.744 40.2079 33.216V33.648H52.6879ZM63.072 24.048H68.208V27.168C68.912 26.112 69.84 25.264 70.992 24.624C72.144 23.984 73.296 23.664 74.448 23.664H77.424C79.888 23.664 81.856 24.448 83.328 26.016C84.832 27.584 85.584 29.648 85.584 32.208V48H80.064V32.352C80.064 31.2 79.76 30.272 79.152 29.568C78.576 28.832 77.808 28.464 76.848 28.464H73.872C72.624 28.464 71.504 28.944 70.512 29.904C69.52 30.832 68.88 32.032 68.592 33.504V48H63.072V24.048ZM89.2301 45.312L102.622 28.704H89.8061V24.048H110.494V26.736L97.1021 43.344H110.254V48H89.2301V45.312ZM125.864 48.384C123.496 48.384 121.416 47.872 119.624 46.848C117.832 45.792 116.44 44.32 115.448 42.432C114.456 40.512 113.96 38.304 113.96 35.808V26.592C113.96 24.096 114.456 21.904 115.448 20.016C116.472 18.096 117.896 16.624 119.72 15.6C121.544 14.544 123.656 14.016 126.056 14.016H131.144C133.416 14.016 135.432 14.512 137.192 15.504C138.952 16.464 140.312 17.84 141.272 19.632C142.232 21.392 142.712 23.44 142.712 25.776H137.192C137.192 23.728 136.632 22.08 135.512 20.832C134.392 19.584 132.936 18.96 131.144 18.96H126.056C124.104 18.96 122.536 19.68 121.352 21.12C120.168 22.56 119.576 24.448 119.576 26.784V35.616C119.576 37.984 120.152 39.888 121.304 41.328C122.456 42.736 123.976 43.44 125.864 43.44H131.048C132.904 43.44 134.408 42.736 135.56 41.328C136.712 39.92 137.288 38.096 137.288 35.856H142.808C142.808 38.352 142.312 40.544 141.32 42.432C140.36 44.32 138.984 45.792 137.192 46.848C135.432 47.872 133.384 48.384 131.048 48.384H125.864ZM156.138 48.384C153.194 48.384 150.826 47.536 149.034 45.84C147.242 44.112 146.346 41.84 146.346 39.024V33.072C146.346 31.216 146.746 29.584 147.546 28.176C148.378 26.736 149.53 25.632 151.002 24.864C152.506 24.064 154.234 23.664 156.186 23.664H160.41C162.362 23.664 164.074 24.064 165.546 24.864C167.05 25.632 168.202 26.736 169.002 28.176C169.834 29.584 170.25 31.216 170.25 33.072V39.024C170.25 41.84 169.338 44.112 167.514 45.84C165.722 47.536 163.322 48.384 160.314 48.384H156.138ZM160.266 43.632C161.61 43.632 162.682 43.184 163.482 42.288C164.314 41.36 164.73 40.16 164.73 38.688V33.36C164.73 31.888 164.33 30.704 163.53 29.808C162.73 28.88 161.658 28.416 160.314 28.416H156.282C154.938 28.416 153.866 28.88 153.066 29.808C152.266 30.704 151.866 31.888 151.866 33.36V38.688C151.866 40.16 152.266 41.36 153.066 42.288C153.866 43.184 154.906 43.632 156.186 43.632H160.266ZM175.431 24.048H180.567V27.168C181.271 26.112 182.199 25.264 183.351 24.624C184.503 23.984 185.655 23.664 186.807 23.664H189.783C192.247 23.664 194.215 24.448 195.687 26.016C197.191 27.584 197.943 29.648 197.943 32.208V48H192.423V32.352C192.423 31.2 192.119 30.272 191.511 29.568C190.935 28.832 190.167 28.464 189.207 28.464H186.231C184.983 28.464 183.863 28.944 182.871 29.904C181.879 30.832 181.239 32.032 180.951 33.504V48H175.431V24.048ZM225.727 48H220.207V28.752H211.567V48H206.047V28.752H201.919V24H206.047V22.368C206.047 19.776 206.815 17.776 208.351 16.368C209.919 14.928 212.111 14.208 214.927 14.208H221.935V18.912H215.023C213.839 18.912 212.959 19.2 212.383 19.776C211.839 20.32 211.567 21.2 211.567 22.416V24H225.727V48ZM240.653 57.744C238.253 57.744 236.253 57.072 234.653 55.728C233.053 54.384 232.173 52.608 232.013 50.4H237.437C237.533 51.2 237.869 51.84 238.445 52.32C239.053 52.8 239.789 53.04 240.653 53.04H244.877C246.093 53.04 247.053 52.576 247.757 51.648C248.493 50.752 248.861 49.536 248.861 48V45.264C248.189 46.032 247.357 46.656 246.365 47.136C245.405 47.616 244.461 47.856 243.533 47.856H240.173C237.421 47.856 235.181 47.008 233.453 45.312C231.757 43.584 230.909 41.328 230.909 38.544V33.408C230.909 31.488 231.309 29.792 232.109 28.32C232.909 26.848 234.029 25.712 235.469 24.912C236.941 24.08 238.621 23.664 240.509 23.664H243.485C244.573 23.664 245.645 23.936 246.701 24.48C247.757 24.992 248.589 25.68 249.197 26.544V24.048H254.381V48C254.381 50.976 253.517 53.344 251.789 55.104C250.093 56.864 247.789 57.744 244.877 57.744H240.653ZM243.821 43.152C245.197 43.152 246.349 42.608 247.277 41.52C248.205 40.432 248.733 39.024 248.861 37.296V33.12C248.733 31.744 248.237 30.624 247.373 29.76C246.509 28.864 245.469 28.416 244.253 28.416H240.941C239.597 28.416 238.509 28.912 237.677 29.904C236.845 30.864 236.429 32.144 236.429 33.744V38.208C236.429 39.68 236.797 40.88 237.533 41.808C238.301 42.704 239.293 43.152 240.509 43.152H243.821Z" fill="#9D9D9D"/>
<path d="M307.912 8.2V8.264H315.976L318.088 8.904C320.2 9.544 321.48 11.656 321.096 13.832L320.648 17.032L320.008 21.64L319.368 26.248L318.984 29.384C318.6 31.816 316.872 33.736 314.568 34.376L312.328 35.016H304.2H287.368H282.184L281.544 39.624L280.904 44.232H316.936L315.72 53H270.92L271.176 51.272L272.136 44.232L272.776 39.624L273.416 35.016L273.8 31.816C274.184 29.448 275.912 27.528 278.216 26.888L280.456 26.248H288.584H305.416H310.6L311.24 21.64L311.88 17.032H275.848L277.064 8.2H307.912ZM329.251 44.36C329.699 44.296 330.147 44.488 330.403 44.872C330.723 45.192 330.851 45.64 330.787 46.088L330.019 51.4C329.891 52.36 329.059 53.064 328.099 53.128H322.723C322.275 53.128 321.891 52.936 321.571 52.616C321.315 52.296 321.187 51.848 321.251 51.4L321.955 46.088C322.147 45.064 322.979 44.36 323.939 44.36H329.251ZM365.994 53L365.931 53.064H335.082L336.298 44.232H372.331L372.971 39.624L373.611 35.016C364.522 35.016 355.434 35.016 346.346 35.08H343.466V35.016H337.578L337.834 33.288L338.794 26.248L339.434 21.64L340.074 17.032L341.034 9.992L341.29 8.264H386.09L384.875 17.032H348.842L348.202 21.64L347.562 26.248C356.65 26.248 365.738 26.248 374.826 26.248H377.707L379.819 26.888C381.931 27.528 383.211 29.704 382.826 31.88L382.379 35.016L381.739 39.624L381.163 44.232L380.715 47.432C380.331 49.8 378.603 51.72 376.299 52.36L374.059 53H365.994Z" fill="url(#paint0_linear_81_25)"/>
<defs>
<linearGradient id="paint0_linear_81_25" x1="390.5" y1="60" x2="272.879" y2="-4.56667" gradientUnits="userSpaceOnUse">
<stop stop-color="#EBBE22"/>
<stop offset="0.5" stop-color="#FF105E"/>
<stop offset="1" stop-color="#6224D7"/>
</linearGradient>
</defs>
</svg>
