<svg width="180" height="71" viewBox="0 0 180 71" fill="none" xmlns="http://www.w3.org/2000/svg">
<path d="M57.8 -4.76837e-06V0.0999939H70.4L73.7 1.1C77 2.1 79 5.4 78.4 8.8L77.7 13.8L76.7 21L75.7 28.2L75.1 33.1C74.5 36.9 71.8 39.9 68.2 40.9L64.7 41.9H52H25.7H17.6L16.6 49.1L15.6 56.3H71.9L70 70H1.19209e-07L0.4 67.3L1.9 56.3L2.9 49.1L3.9 41.9L4.5 36.9C5.1 33.2 7.8 30.2 11.4 29.2L14.9 28.2H27.6H53.9H62L63 21L64 13.8H7.7L9.6 -4.76837e-06H57.8ZM91.1422 56.5C91.8422 56.4 92.5422 56.7 92.9422 57.3C93.4422 57.8 93.6422 58.5 93.5422 59.2L92.3422 67.5C92.1422 69 90.8422 70.1 89.3422 70.2H80.9422C80.2422 70.2 79.6422 69.9 79.1422 69.4C78.7422 68.9 78.5422 68.2 78.6422 67.5L79.7422 59.2C80.0422 57.6 81.3422 56.5 82.8422 56.5H91.1422ZM148.554 70L148.454 70.1H100.254L102.154 56.3H158.454L159.454 49.1L160.454 41.9C146.254 41.9 132.054 41.9 117.854 42H113.354V41.9H104.154L104.554 39.2L106.054 28.2L107.054 21L108.054 13.8L109.554 2.79999L109.954 0.0999939H179.954L178.054 13.8H121.754L120.754 21L119.754 28.2C133.954 28.2 148.154 28.2 162.354 28.2H166.854L170.154 29.2C173.454 30.2 175.454 33.6 174.854 37L174.154 41.9L173.154 49.1L172.254 56.3L171.554 61.3C170.954 65 168.254 68 164.654 69L161.154 70H148.554Z" fill="url(#paint0_linear_113_6)"/>
<defs>
<linearGradient id="paint0_linear_113_6" x1="185.325" y1="99.5" x2="-12.2935" y2="11.0027" gradientUnits="userSpaceOnUse">
<stop stop-color="#EBBE22"/>
<stop offset="0.5" stop-color="#FF105E"/>
<stop offset="1" stop-color="#6224D7"/>
</linearGradient>
</defs>
</svg>
